<svg width="120" height="24" viewBox="0 0 120 24" fill="none" xmlns="http://www.w3.org/2000/svg">
<g clip-path="url(#clip0_2343_1331)">
<path d="M13.8992 23.677C7.38481 23.677 2.57227 18.5297 2.57227 11.7419C2.57227 4.95421 7.38481 0.289062 13.8992 0.289062H26.8041V4.37413H13.8992C9.72722 4.37413 6.64847 7.4949 6.64847 11.934C6.64847 16.3732 9.69717 19.5919 13.8992 19.5919H23.8775V13.5104H13.3526V10.0676H27.9837V23.677H13.8992Z" fill="#00CD83"/>
<path d="M40.8371 13.5104V10.0676H50.65C52.9605 10.0676 54.0519 9.2634 54.0519 7.23688C54.0519 4.76022 52.0945 4.37413 49.0778 4.37413H37.6231V19.6239H49.4309C52.35 19.6239 54.4689 18.8197 54.4689 16.5352C54.4689 14.6047 53.2178 13.5104 50.9393 13.5104H40.839H40.8371ZM33.5469 23.677V0.289062H50.6162C55.2484 0.289062 58.1882 2.47944 58.1882 6.47034C58.1882 9.42914 56.6798 11.0413 54.9479 11.5875C57.0649 12.2636 58.6052 13.9982 58.6052 16.731C58.6052 21.0101 55.6542 23.677 51.0971 23.677H33.5469Z" fill="#00CD83"/>
<path d="M91.683 23.6779L87.3288 7.64467L80.8764 22.4556C80.4274 23.4538 79.785 24 78.7913 24C77.7976 24 77.1233 23.4538 76.7044 22.4556L70.2839 7.64467L65.9297 23.6779H61.6562L67.656 1.67433C67.9452 0.548066 68.7173 0 69.8087 0C70.6746 0 71.6082 0.482147 71.9933 1.38429L78.9172 17.5249L85.843 1.38429C86.228 0.48403 87.0658 0 87.9318 0C88.9274 0 89.6994 0.546182 90.0206 1.67433L95.9884 23.6779H91.683Z" fill="#00CD83"/>
<path d="M101.709 23.677C100.49 23.677 99.3984 22.9688 99.3984 21.5864C99.3984 20.9762 99.6877 20.3961 100.232 19.848L115.73 4.18014H99.6858V0.289062H120.093C121.28 0.289062 122.404 0.997216 122.404 2.37962C122.404 2.99172 122.114 3.56992 121.57 4.1161L106.071 19.784H122.569V23.677H101.707H101.709Z" fill="#00CD83"/>
</g>
<defs>
<clipPath id="clip0_2343_1331">
<rect width="120" height="24" fill="white"/>
</clipPath>
</defs>
</svg>
